<?xml version="1.0" encoding="UTF-8"?>
<svg xmlns="http://www.w3.org/2000/svg" version="1.1" width="173" height="173" viewBox="0 0 173 173"><rect x="0" y="0" width="173" height="173" fill="#ffffff"/><g transform="scale(5.242)"><g transform="translate(0,0)"><path fill-rule="evenodd" d="M10 0L10 2L11 2L11 0ZM12 0L12 1L13 1L13 2L12 2L12 4L13 4L13 3L14 3L14 4L15 4L15 5L18 5L18 8L19 8L19 9L20 9L20 10L21 10L21 12L19 12L19 10L18 10L18 9L17 9L17 6L16 6L16 9L12 9L12 7L13 7L13 5L11 5L11 6L10 6L10 4L11 4L11 3L8 3L8 4L9 4L9 5L8 5L8 7L9 7L9 8L6 8L6 9L7 9L7 10L6 10L6 11L7 11L7 12L6 12L6 13L7 13L7 14L6 14L6 15L7 15L7 16L2 16L2 18L1 18L1 16L0 16L0 18L1 18L1 19L0 19L0 25L1 25L1 19L2 19L2 18L3 18L3 19L4 19L4 18L5 18L5 19L7 19L7 20L5 20L5 22L4 22L4 23L5 23L5 24L3 24L3 22L2 22L2 24L3 24L3 25L5 25L5 24L6 24L6 25L8 25L8 27L9 27L9 26L10 26L10 29L9 29L9 28L8 28L8 33L10 33L10 32L9 32L9 30L10 30L10 31L11 31L11 33L12 33L12 31L13 31L13 30L11 30L11 25L12 25L12 26L13 26L13 27L12 27L12 29L13 29L13 28L14 28L14 29L15 29L15 31L14 31L14 32L16 32L16 33L17 33L17 32L16 32L16 30L18 30L18 32L19 32L19 33L20 33L20 32L22 32L22 33L25 33L25 32L26 32L26 33L28 33L28 32L27 32L27 30L26 30L26 29L28 29L28 30L29 30L29 32L31 32L31 33L32 33L32 32L31 32L31 31L30 31L30 30L33 30L33 29L32 29L32 28L33 28L33 27L32 27L32 26L33 26L33 24L32 24L32 26L31 26L31 25L30 25L30 26L31 26L31 27L29 27L29 24L31 24L31 23L32 23L32 22L33 22L33 21L32 21L32 20L31 20L31 19L32 19L32 18L33 18L33 17L32 17L32 16L31 16L31 15L32 15L32 14L33 14L33 13L31 13L31 15L30 15L30 13L29 13L29 12L28 12L28 11L29 11L29 10L27 10L27 9L28 9L28 8L27 8L27 9L26 9L26 8L25 8L25 9L26 9L26 10L27 10L27 13L26 13L26 11L22 11L22 10L21 10L21 8L22 8L22 9L23 9L23 10L24 10L24 9L23 9L23 8L22 8L22 7L23 7L23 6L22 6L22 5L24 5L24 7L25 7L25 3L24 3L24 2L22 2L22 0L20 0L20 1L21 1L21 3L19 3L19 1L18 1L18 0L17 0L17 1L16 1L16 0ZM23 0L23 1L24 1L24 0ZM8 1L8 2L9 2L9 1ZM17 1L17 2L16 2L16 4L18 4L18 5L19 5L19 8L21 8L21 7L22 7L22 6L21 6L21 5L20 5L20 4L19 4L19 3L18 3L18 1ZM14 2L14 3L15 3L15 2ZM21 3L21 4L22 4L22 3ZM9 6L9 7L10 7L10 6ZM11 6L11 7L12 7L12 6ZM14 6L14 8L15 8L15 6ZM20 6L20 7L21 7L21 6ZM0 8L0 11L1 11L1 9L2 9L2 11L3 11L3 12L2 12L2 14L0 14L0 15L2 15L2 14L3 14L3 15L5 15L5 14L4 14L4 13L5 13L5 12L4 12L4 11L5 11L5 10L4 10L4 9L5 9L5 8ZM10 8L10 9L8 9L8 10L7 10L7 11L8 11L8 12L7 12L7 13L8 13L8 14L13 14L13 15L12 15L12 17L11 17L11 15L9 15L9 16L10 16L10 17L11 17L11 20L10 20L10 18L9 18L9 19L8 19L8 20L9 20L9 21L10 21L10 22L13 22L13 23L12 23L12 25L16 25L16 24L17 24L17 25L18 25L18 26L16 26L16 28L15 28L15 27L14 27L14 28L15 28L15 29L16 29L16 28L17 28L17 29L18 29L18 30L19 30L19 32L20 32L20 31L21 31L21 30L19 30L19 29L22 29L22 31L23 31L23 32L25 32L25 31L26 31L26 30L25 30L25 31L23 31L23 30L24 30L24 27L23 27L23 26L24 26L24 25L23 25L23 26L21 26L21 25L22 25L22 24L23 24L23 23L24 23L24 24L25 24L25 23L24 23L24 22L26 22L26 24L27 24L27 22L30 22L30 21L31 21L31 20L29 20L29 19L28 19L28 18L29 18L29 17L30 17L30 19L31 19L31 16L30 16L30 15L29 15L29 13L27 13L27 14L26 14L26 13L25 13L25 12L21 12L21 14L20 14L20 13L19 13L19 12L18 12L18 10L17 10L17 9L16 9L16 10L17 10L17 11L16 11L16 13L18 13L18 14L15 14L15 13L14 13L14 12L15 12L15 11L14 11L14 12L13 12L13 13L12 13L12 11L13 11L13 10L12 10L12 9L11 9L11 8ZM29 8L29 9L30 9L30 8ZM31 8L31 10L33 10L33 9L32 9L32 8ZM10 9L10 11L11 11L11 9ZM3 10L3 11L4 11L4 10ZM8 10L8 11L9 11L9 10ZM30 11L30 12L31 12L31 11ZM0 12L0 13L1 13L1 12ZM3 12L3 13L4 13L4 12ZM9 12L9 13L11 13L11 12ZM23 13L23 14L22 14L22 15L21 15L21 16L19 16L19 14L18 14L18 16L19 16L19 17L20 17L20 18L21 18L21 20L19 20L19 18L18 18L18 17L17 17L17 18L16 18L16 17L12 17L12 18L13 18L13 19L12 19L12 21L13 21L13 20L14 20L14 21L17 21L17 22L18 22L18 24L19 24L19 26L18 26L18 28L19 28L19 26L20 26L20 28L22 28L22 29L23 29L23 27L21 27L21 26L20 26L20 24L22 24L22 23L21 23L21 22L24 22L24 21L23 21L23 19L22 19L22 18L24 18L24 19L25 19L25 21L26 21L26 22L27 22L27 21L26 21L26 20L28 20L28 21L29 21L29 20L28 20L28 19L27 19L27 18L28 18L28 17L29 17L29 15L28 15L28 16L27 16L27 15L25 15L25 16L24 16L24 17L23 17L23 14L24 14L24 13ZM14 15L14 16L15 16L15 15ZM16 15L16 16L17 16L17 15ZM21 16L21 17L22 17L22 16ZM26 16L26 17L24 17L24 18L25 18L25 19L26 19L26 17L27 17L27 16ZM3 17L3 18L4 18L4 17ZM6 17L6 18L8 18L8 17ZM17 18L17 19L16 19L16 20L17 20L17 21L18 21L18 22L19 22L19 23L20 23L20 21L19 21L19 20L18 20L18 18ZM14 19L14 20L15 20L15 19ZM2 20L2 21L3 21L3 20ZM21 20L21 21L22 21L22 20ZM6 21L6 22L8 22L8 23L6 23L6 24L10 24L10 23L9 23L9 22L8 22L8 21ZM15 22L15 23L14 23L14 24L16 24L16 22ZM28 23L28 24L29 24L29 23ZM25 25L25 28L28 28L28 25ZM26 26L26 27L27 27L27 26ZM29 28L29 30L30 30L30 29L31 29L31 28ZM0 0L0 7L7 7L7 0ZM1 1L1 6L6 6L6 1ZM2 2L2 5L5 5L5 2ZM26 0L26 7L33 7L33 0ZM27 1L27 6L32 6L32 1ZM28 2L28 5L31 5L31 2ZM0 26L0 33L7 33L7 26ZM1 27L1 32L6 32L6 27ZM2 28L2 31L5 31L5 28Z" fill="#000000"/></g></g></svg>
